<svg version="1.1" viewBox="0 0 512 512" xmlns="http://www.w3.org/2000/svg">
<g transform="translate(0 -161.53)" fill-rule="evenodd" shape-rendering="auto">
<circle cx="256" cy="417.53" r="248" color="#000000" color-rendering="auto" fill="#6eff66" image-rendering="auto" solid-color="#000000" style="isolation:auto;mix-blend-mode:normal"/>
<path transform="translate(0 161.53)" d="m144.73 94c-17.576 0-31.727 14.15-31.727 31.727v260.55c0 17.576 14.15 31.727 31.727 31.727h222.55c17.576 0 31.727-14.15 31.727-31.727v-260.55c0-17.576-14.15-31.727-31.727-31.727h-222.55zm16.387 38h39.496c8.874 0 16.252 7.378 16.252 16.252v39.496c0 8.874-7.378 16.252-16.252 16.252h-39.496c-8.874 0-16.252-7.378-16.252-16.252v-39.496c0-8.874 7.378-16.252 16.252-16.252zm0 15c-0.82342 0-1.252 0.42853-1.252 1.252v39.496c0 0.82342 0.42852 1.252 1.252 1.252h39.496c0.82342 0 1.252-0.42852 1.252-1.252v-39.496c0-0.82343-0.42855-1.252-1.252-1.252h-39.496zm82.619 13.5h115.8a7.5008 7.5008 0 1 1 0 15h-115.8a7.5008 7.5008 0 1 1 0 -15zm-9.6719 35.902c1.4458 0 2.4171 0.13517 2.9141 0.40625 0.49699 0.27109 0.74609 0.609 0.74609 1.0156 0 0.63253-0.74536 1.8761-2.2363 3.7285-7.185 8.6368-14.143 17.484-20.898 26.52 1.4332 2.4149 2.2754 5.2087 2.2754 8.1797v39.496c0 8.874-7.378 16.252-16.252 16.252h-39.496c-8.874 0-16.252-7.378-16.252-16.252v-39.496c0-8.874 7.378-16.252 16.252-16.252h39.496c1.6844 0 3.3132 0.26835 4.8496 0.75977 5.2744-7.2742 10.366-13.795 15.252-19.479 2.8012-3.253 7.2501-4.8789 13.35-4.8789zm-72.947 38.598c-0.82343 0-1.252 0.42853-1.252 1.252v39.496c0 0.82342 0.42853 1.252 1.252 1.252h39.496c0.82341 0 1.252-0.42852 1.252-1.252v-30.053c-5.0952 7.3054-10.073 14.722-14.902 22.273-1.0392 1.6265-3.1613 2.4394-6.3691 2.4394-3.253 0-5.1744-0.13526-5.7617-0.40625-1.5362-0.67772-3.3436-4.1341-5.4219-10.369-2.3494-6.9127-3.5234-11.25-3.5234-13.012 0-1.8976 1.5815-3.7282 4.7441-5.4902 1.9428-1.0843 3.6594-1.627 5.1504-1.627 1.7621 0 3.0945 1.4463 3.998 4.3379 1.8073 5.4217 3.0952 8.1328 3.8633 8.1328 0.58738 0 1.1976-0.45184 1.8301-1.3555 3.434-5.4992 6.7928-10.688 10.088-15.619h-34.443zm83.066 13.5h114.9a7.5008 7.5008 0 1 1 0 15h-114.9a7.5008 7.5008 0 1 1 0 -15zm-83.066 59.5h39.496c8.874 0 16.252 7.378 16.252 16.252v39.496c0 8.874-7.378 16.252-16.252 16.252h-39.496c-8.874 0-16.252-7.378-16.252-16.252v-39.496c0-8.874 7.378-16.252 16.252-16.252zm0 15c-0.82343 0-1.252 0.42853-1.252 1.252v39.496c0 0.82342 0.42853 1.252 1.252 1.252h39.496c0.82341 0 1.252-0.42852 1.252-1.252v-39.496c0-0.82343-0.42854-1.252-1.252-1.252h-39.496zm82.619 13.5h115.8a7.5008 7.5008 0 1 1 0 15h-115.8a7.5008 7.5008 0 1 1 0 -15z" color="#000000" color-rendering="auto" fill="#fff" image-rendering="auto" solid-color="#000000" style="isolation:auto;mix-blend-mode:normal"/>
</g>
</svg>
